PathFileType	4	(X/Y/Z)	Patient4_TMGait_0pt8_01_right_48.trc.trc
DataRate	CameraRate	NumFrames	NumMarkers	Units	OrigDataRate	OrigDataStartFrame	OrigNumFrames
88.050314465409	88.050314465409	4	33	mm	88.050314465409	36	       141
Frame#	Time	Sacral			L.Shoulder			Chest			R.Shoulder			Neck			R.ASIS			L.ASIS			R.Thigh.Superior			R.Thigh.Lateral			R.Thigh.Inferior			R.Patella			L.Thigh.Superior			L.Thigh.Lateral			L.Thigh.Inferior			L.Patella			L.Shank.Superior			L.Shank.Lateral			L.Shank.Inferior			R.Shank.Superior			R.Shank.Lateral			R.Shank.Inferior			R.Heel			R.Midfoot.Superior			R.Midfoot.Lateral			R.Toe			L.Heel			L.Midfoot.Lateral			L.Midfoot.Superior			L.Toe			L.Elbow			L.Wrist			R.Elbow			R.Wrist			
		X1	Y1	Z1	X2	Y2	Z2	X3	Y3	Z3	X4	Y4	Z4	X5	Y5	Z5	X6	Y6	Z6	X7	Y7	Z7	X8	Y8	Z8	X9	Y9	Z9	X10	Y10	Z10	X11	Y11	Z11	X12	Y12	Z12	X13	Y13	Z13	X14	Y14	Z14	X15	Y15	Z15	X16	Y16	Z16	X17	Y17	Z17	X18	Y18	Z18	X19	Y19	Z19	X20	Y20	Z20	X21	Y21	Z21	X22	Y22	Z22	X23	Y23	Z23	X24	Y24	Z24	X25	Y25	Z25	X26	Y26	Z26	X27	Y27	Z27	X28	Y28	Z28	X29	Y29	Z29	X30	Y30	Z30	X31	Y31	Z31	X32	Y32	Z32	X33	Y33	Z33	

36	54.427500000000	917.831654775214	995.008671923991	504.954297352212	1088.724284262283	1428.355847388984	325.716953556959	1192.222123372777	1359.120934632554	486.706869831365	1105.680766486189	1427.629457700924	661.341485509580	1067.451448044018	1485.109870757129	481.119261308119	1148.308559632916	931.201008944442	617.918185883557	1123.855093147997	963.073454745191	337.732639482542	1219.033644561765	751.697038049531	592.929530270889	1155.839823734465	632.113149188605	656.333407052988	1245.752405386676	592.089303494853	581.602002266731	1263.490407070686	502.219686453691	591.947159795134	1142.478963652216	724.986521444780	359.114731805561	1033.072523633485	624.930472924725	297.031289528160	1110.249607898265	527.995177979356	346.988215517439	1092.289342867877	445.865543764283	343.365042475911	1021.825292975208	394.073699488973	339.664952133430	878.140826618062	354.086355654689	297.999215684026	866.075207259652	224.312599667883	352.207757498522	1238.582996375031	410.576868357073	599.603348953272	1170.989926790992	304.048569832911	660.142468887865	1221.762183408050	209.981847502755	603.108253718729	1097.303839161818	43.906358982776	570.948063397940	1265.469455350493	98.298919090197	615.193933347241	1176.355575938971	37.870623263536	650.656911182995	1384.448692548379	46.538540900402	651.739852637179	677.179566099609	157.097735797414	399.616753567823	730.794956132701	106.310376138694	321.137686255169	835.462670522536	119.279557020946	336.274928015478	914.717204685155	31.664554839301	315.717268418326	1095.889601408264	1085.491643974925	186.580073013790	1350.341447232404	1067.770794029689	189.550384690271	965.303816269899	1112.059230331835	767.005367765015	925.371577352565	855.905014788053	784.984770687635	
37	54.438857142857	918.404603652071	996.604997137758	508.724634380825	1088.845961971178	1429.693264893561	327.763430317725	1193.107434727419	1360.573655006571	488.323315654395	1107.508335614775	1429.541058019534	663.156730587840	1068.243019459900	1486.537333533947	483.091801310582	1148.987844312176	933.068727283513	621.131474473193	1123.752857704649	964.344481196943	341.496636813022	1217.895043217586	751.044236588289	597.556173388385	1152.169640976809	632.327636725659	659.026656334410	1241.662562127688	591.372195965595	584.279954863565	1258.115256162246	501.371056283959	593.914806440365	1148.262076216855	727.268425441555	362.912978769786	1043.606953713605	624.390774769260	299.111405629271	1123.450852205167	529.192764244688	349.646681903461	1106.493149023017	445.823456902301	345.295663404528	1033.999511133166	394.315631832894	341.266860704868	889.094323556950	359.769822871041	298.734203838399	871.925948378570	230.524368722661	352.456948858350	1232.353983486285	410.074237777895	601.365966007313	1163.879872846120	303.909527360028	661.368572178201	1213.904711412905	209.661722978731	603.859939295889	1088.373499683982	43.875311384071	571.148773311329	1256.491006061566	98.440826981536	615.375861528536	1167.374753992588	37.898365211380	650.859590443714	1375.477182870809	46.484156070169	652.071939517437	680.910142614755	174.927428323786	398.995912581957	730.957739061221	120.047581643359	320.728137687370	836.215890919870	124.914984216838	336.090262437602	907.301971474864	30.020862900191	315.784556047187	1088.787293721488	1084.954387254398	192.555935211393	1342.713418105227	1054.451601638379	191.949672763938	971.962626080915	1111.557613514969	770.861305334639	943.642112599614	853.585992187094	787.304332453040	
38	54.450214285714	918.713575172075	998.083058492788	512.437560615201	1088.619945457046	1430.818281769622	329.676771047747	1193.793942644966	1361.843480138341	489.733423378740	1109.279133440015	1431.251994276163	664.864787029935	1068.896833936981	1487.799220997682	484.962321152608	1149.496024852214	934.764377371183	624.124743609228	1123.642144811538	965.004261279088	345.265383269033	1216.344406951725	750.238370294768	601.821460861994	1148.309070968867	632.533330073660	661.607013184036	1237.200735385343	590.600116676066	586.699137576801	1252.339580884649	500.489585183954	595.780931850916	1153.989457808542	729.790730686969	366.747588684197	1054.341337325429	624.174659154432	301.185247069285	1136.708766761313	530.895532620814	352.591448779793	1120.995721079928	446.362336862083	347.678481805241	1046.742915103279	394.958914299514	343.179677921827	900.943542134395	365.509577363977	299.556357705789	878.879818262598	236.961391778447	352.982455333617	1225.801998862991	409.556495441648	603.059270704135	1156.538677338833	303.716073217501	662.546061612945	1205.927695086506	209.345748949832	604.597382090058	1079.408281644467	43.864125847822	571.323018967350	1247.522526279250	98.505442606286	615.579158264550	1158.360533727664	37.893329584987	651.039531341797	1366.492020676146	46.291866946591	652.374084021030	686.340224926405	192.632003811624	398.464186982708	732.884293891674	134.179463930327	320.334704932086	838.296864327948	131.105509835040	336.166914849122	901.128050228458	28.578352912472	315.799862928727	1081.981976117003	1084.389005699377	198.431905775022	1334.559908322892	1039.871872591238	194.446425665841	978.858752356361	1110.910942268922	774.822350856080	963.572633026681	851.495609831601	789.256347148691	
39	54.461571428571	918.752153294964	999.436939571132	516.061107704154	1088.052902191073	1431.716613800608	331.451185608188	1194.275607463178	1362.921257377899	490.936825349063	1110.982687804922	1432.745764966340	666.466176768054	1069.418137989315	1488.902605563643	486.719175783053	1149.837384079825	936.283455591394	626.895044287938	1123.492559014270	965.089497259959	348.969775714015	1214.439298499964	749.382854727562	605.613396411427	1144.383444411858	632.763600132955	664.064363536089	1232.500056132022	589.826508747522	588.867555085523	1246.291334864115	499.611101274422	597.563323447151	1159.523414945386	732.584485277620	370.575517896606	1065.039133013795	624.391688392196	303.246346832254	1149.780117477661	533.174654309611	355.729210315094	1135.562655632300	447.555710077003	350.366530478460	1059.835075831746	396.080232101202	345.302809200773	913.418334249738	371.234804564133	300.492671906987	886.874529884642	243.451851626415	353.748783086318	1219.048892852551	409.040500068699	604.672131972979	1149.066349019877	303.501090010677	663.681986149847	1197.880309912509	209.041235073730	605.312215697201	1070.403693338045	43.880551603953	571.482180833584	1238.564212945199	98.485051978751	615.809274804249	1149.311626589154	37.868579763662	651.205061458973	1357.489952249606	45.984362852914	652.643329188092	693.351208860199	209.483926942993	398.084361845157	736.651264768380	148.096912761938	319.997865860911	841.861856825444	137.633744261400	336.464676536688	896.747865400468	27.554769073354	315.736692055746	1075.583203467927	1083.746042841194	204.142753432451	1325.764818490120	1024.111614719004	197.050504279481	986.100050389806	1110.055225862933	778.828316751320	985.099294141266	849.800425594224	790.772409506452	
